name C:/MyDriveSym/Projects/mobilecap/Data\Session20210816_0002\mocap\ForceDataProcessed\walkingTS4_forces.mot
datacolumns 19
datarows 12
range 1.16950000 1.17500000
endheader 
time	R_ground_force_vx	R_ground_force_vy	R_ground_force_vz	R_ground_force_px	R_ground_force_py	R_ground_force_pz	R_ground_torque_x	R_ground_torque_y	R_ground_torque_z	L_ground_force_vx	L_ground_force_vy	L_ground_force_vz	L_ground_force_px	L_ground_force_py	L_ground_force_pz	L_ground_torque_x	L_ground_torque_y	L_ground_torque_z	
          1.16950000	          0.00000000	          0.00000000	          0.00000000	          1.27547100	          0.00000000	         -0.18431800	          0.00000000	          0.00000000	          0.00000000	         33.54660500	        627.20626800	         36.16506700	          0.96788300	          0.00600000	         -0.33503900	          0.00000000	          4.63457400	          0.00000000	
          1.17000000	          0.00000000	          0.00000000	          0.00000000	          1.27665900	          0.00000000	         -0.18430300	          0.00000000	          0.00000000	          0.00000000	         33.82147000	        627.45684800	         36.26444200	          0.96791800	          0.00600000	         -0.33505700	          0.00000000	          4.63270800	          0.00000000	
          1.17050000	          0.00000000	          0.00000000	          0.00000000	          1.27784800	          0.00000000	         -0.18428900	          0.00000000	          0.00000000	          0.00000000	         34.09668900	        627.70731800	         36.36356900	          0.96795200	          0.00600000	         -0.33507500	          0.00000000	          4.63084000	          0.00000000	
          1.17100000	          0.00000000	          0.00000000	          0.00000000	          1.27903700	          0.00000000	         -0.18427400	          0.00000000	          0.00000000	          0.00000000	         34.37225900	        627.95763500	         36.46244700	          0.96798700	          0.00600000	         -0.33509200	          0.00000000	          4.62897000	          0.00000000	
          1.17150000	          0.00000000	          0.00000000	          0.00000000	          1.28022500	          0.00000000	         -0.18426000	          0.00000000	          0.00000000	          0.00000000	         34.64817800	        628.20775900	         36.56107200	          0.96802200	          0.00600000	         -0.33510900	          0.00000000	          4.62709700	          0.00000000	
          1.17200000	          0.00000000	          0.00000000	          0.00000000	          1.28141400	          0.00000000	         -0.18424500	          0.00000000	          0.00000000	          0.00000000	         34.92444400	        628.45764700	         36.65944200	          0.96805700	          0.00600000	         -0.33512500	          0.00000000	          4.62522100	          0.00000000	
          1.17250000	          0.00000000	          0.00000000	          0.00000000	          1.28260200	          0.00000000	         -0.18423100	          0.00000000	          0.00000000	          0.00000000	         35.20105300	        628.70725500	         36.75755500	          0.96809300	          0.00600000	         -0.33514100	          0.00000000	          4.62334100	          0.00000000	
          1.17300000	          0.00000000	          0.00000000	          0.00000000	          1.28379100	          0.00000000	         -0.18421600	          0.00000000	          0.00000000	          0.00000000	         35.47800400	        628.95654000	         36.85540700	          0.96812800	          0.00600000	         -0.33515700	          0.00000000	          4.62145800	          0.00000000	
          1.17350000	          0.00000000	          0.00000000	          0.00000000	          1.28498000	          0.00000000	         -0.18420200	          0.00000000	          0.00000000	          0.00000000	         35.75529400	        629.20545900	         36.95299600	          0.96816400	          0.00600000	         -0.33517200	          0.00000000	          4.61957000	          0.00000000	
          1.17400000	          0.00000000	          0.00000000	          0.00000000	          1.28616800	          0.00000000	         -0.18418700	          0.00000000	          0.00000000	          0.00000000	         36.03292000	        629.45396800	         37.05031900	          0.96820000	          0.00600000	         -0.33518700	          0.00000000	          4.61767800	          0.00000000	
          1.17450000	          0.00000000	          0.00000000	          0.00000000	          1.28735700	          0.00000000	         -0.18417300	          0.00000000	          0.00000000	          0.00000000	         36.31087900	        629.70202100	         37.14737400	          0.96823600	          0.00600000	         -0.33520100	          0.00000000	          4.61578100	          0.00000000	
          1.17500000	          0.00000000	          0.00000000	          0.00000000	          1.28854500	          0.00000000	         -0.18415800	          0.00000000	          0.00000000	          0.00000000	         36.58916800	        629.94957400	         37.24415700	          0.96827200	          0.00600000	         -0.33521500	          0.00000000	          4.61387800	          0.00000000	
